<?xml version="1.0" encoding="UTF-8"?>
<svg id="Layer_1" data-name="Layer 1" xmlns="http://www.w3.org/2000/svg" viewBox="0 0 30 30.22">
  <defs>
    <style>
      .cls-1 {
        fill: #9c9c9c;
        fill-rule: evenodd;
        stroke-width: 0px;
      }
    </style>
  </defs>
  <path class="cls-1" d="M11.88,15.91c-.31.09-.76.49-.99.54-.09.04-.05.04-.14.09-.04,0-.09.04-.13.04-.09.04-.14.09-.22.13-.27.14-1.39.72-1.57.72l-.04.04-1.03.45c-.31.13-.72.36-1.08.45-.04.09-.63.36-.72.36-.09.09-.23.14-.36.18-.14.05-.22.14-.31.18l-.63.4c-.09.14-.18.23-.27.31-.18.14-.18.18-.31.32-.13.18-.31.49-.45.72-.13.27-.36.58-.49.94-.31.72-.54,1.35-.72,2.11-.05.27-.14,1.08-.22,1.21.04.4-.18.76.18,1.12l.18.22c.27.09.45.23.81.31.22.09.67.14.85.27.14-.04.27,0,.41.05h.09l2.11.36,1.98.27h.04l2.16.18c.22-.04,1.3.09,1.66.09h.31c.45,0,.85.04,1.3.04.45.05.94,0,1.39,0l1.44-.04h0l2.02-.09c.36-.04,1.71-.18,1.89-.13q.09-.05.27-.05l2.07-.31,1.98-.27c.09-.09.4-.13.58-.13.27-.09.54-.14.81-.23.23-.04.54-.27.67-.27.09-.09.22-.18.27-.27.09-.09.18-.18.18-.31.04-.23,0-.67-.05-.94v-.09c-.09-.31-.13-.76-.22-1.12-.09-.36-.18-.67-.31-1.03-.23-.67-.49-1.3-.85-1.84v-.09s-.4-.54-.49-.67q-.27-.32-.49-.54l-.05-.04s-.04.04-.04-.05c-.31-.22-.76-.54-1.21-.72l-.81-.4-2.07-.9c-.27-.09-.59-.27-.85-.4-.18-.09-.72-.27-.81-.4-.13,0-.31-.13-.45-.22l-.76-.41-.14-.09c-.94.49-1.98.76-3.1.76s-2.29-.31-3.24-.81h0Z"/>
  <path class="cls-1" d="M15.01,2.15c-3.55,0-6.43,2.88-6.43,6.43s2.88,6.39,6.43,6.39,6.39-2.88,6.39-6.39-2.88-6.43-6.39-6.43h0Z"/>
</svg>