<?xml version="1.0" encoding="UTF-8"?>
<svg id="Layer_1" data-name="Layer 1" xmlns="http://www.w3.org/2000/svg" viewBox="0 0 30 30">
  <defs>
    <style>
      .cls-1 {
        fill: #bfbfbf;
      }

      .cls-1, .cls-2 {
        stroke-width: 0px;
      }

      .cls-2 {
        fill: #fff;
      }
    </style>
  </defs>
  <g>
    <path class="cls-1" d="M25.93.82H4.07C2.27.82.82,2.27.82,4.07v21.86c0,1.8,1.46,3.25,3.25,3.25h21.86c1.8,0,3.25-1.46,3.25-3.25V4.07c0-1.8-1.46-3.25-3.25-3.25ZM25.97,22.89c0,1.81-1.46,3.27-3.27,3.27H7.3c-1.81,0-3.27-1.46-3.27-3.27V7.49c0-1.81,1.46-3.27,3.27-3.27h15.4c1.81,0,3.27,1.46,3.27,3.27v15.4Z"/>
    <rect class="cls-1" x="2.93" y="3.12" width="24.19" height="24.19"/>
  </g>
  <path class="cls-2" d="M11.61,10.77l2.8,5.28c.2.41.43.85.57,1.24h.06c.11-.4.34-.83.54-1.24l2.8-5.28h3.63s-5.43,9.45-5.43,9.45h-3.14s-5.46-9.45-5.46-9.45h3.63Z"/>
</svg>