<?xml version="1.0" encoding="UTF-8"?>
<svg id="Layer_1" data-name="Layer 1" xmlns="http://www.w3.org/2000/svg" viewBox="0 0 30 25.07">
  <defs>
    <style>
      .cls-1 {
        fill: #9c9c9c;
        fill-rule: evenodd;
        stroke-width: 0px;
      }
    </style>
  </defs>
  <path class="cls-1" d="M4.07,23.74h21.82c1.39,0,2.43-.81,2.52-1.98v-13.68c-.18.05-1.39,1.03-1.57,1.17-1.53,1.21-6.16,4.54-8.05,5.71-.72.4-2.83,1.71-3.78,1.75-1.89.05-11.16-6.93-12.96-8.32-.18-.13-.22-.18-.45-.31v12.82c0,.72.04,1.17.04,1.21.05.13.14.36.18.4.09.18.36.54.49.67.45.36.94.54,1.75.54h0Z"/>
  <path class="cls-1" d="M1.59,4.71c.13,0,4.36,3.33,4.77,3.6l1.62,1.21c1.08.81,2.16,1.53,3.28,2.29l1.71,1.08c.49.22,1.44.76,2.02.76,1.62.04,9.54-5.8,11.88-7.74,1.17-.94,1.44-.99,1.53-1.35v-1.12c0-.67-.4-1.21-.76-1.53-.36-.36-.94-.59-1.66-.59H4.07c-.94,0-1.62.32-2.02.85-.27.4-.4.67-.45.99v1.53Z"/>
</svg>