<?xml version="1.0" encoding="UTF-8"?>
<svg id="Layer_1" data-name="Layer 1" xmlns="http://www.w3.org/2000/svg" viewBox="0 0 30 30">
  <defs>
    <style>
      .cls-1 {
        fill: #9c9c9c;
        fill-rule: evenodd;
        stroke-width: 0px;
      }
    </style>
  </defs>
  <path class="cls-1" d="M22.38,4.2c1.8-.18,3.24,1.17,3.42,2.74.18,1.8-1.12,3.24-2.7,3.42-1.8.18-3.28-1.12-3.42-2.7-.23-1.84,1.08-3.24,2.7-3.46h0ZM11.94,12.98L1.91,23.01c-.18.18-.76.63-.81.9v4.99h5.17v-3.06h3.06v-3.1c3.42,0,2.74.31,3.87-.81.27-.27.54-.45.81-.72l2.29-2.34c.22-.23.54-.58.81-.76,2.2.58,3.96.81,6.3-.09,4.81-1.93,6.88-7.69,4.5-12.19-.85-1.62-2.11-2.88-3.73-3.73-4.5-2.38-10.21-.31-12.15,4.54-.63,1.53-.76,3.15-.49,4.81.09.54.31,1.08.4,1.53h0Z"/>
</svg>