<?xml version="1.0" encoding="UTF-8"?>
<svg xmlns="http://www.w3.org/2000/svg" xmlns:xlink="http://www.w3.org/1999/xlink" viewBox="0 0 160 70">
  <defs>
    <style>
      .cls-1 {
        fill: url(#linear-gradient-7);
      }

      .cls-1, .cls-2, .cls-3, .cls-4, .cls-5, .cls-6, .cls-7, .cls-8, .cls-9, .cls-10, .cls-11, .cls-12, .cls-13, .cls-14, .cls-15, .cls-16, .cls-17, .cls-18, .cls-19, .cls-20, .cls-21, .cls-22, .cls-23, .cls-24, .cls-25 {
        stroke-width: 0px;
      }

      .cls-1, .cls-2, .cls-3, .cls-6, .cls-8, .cls-13 {
        mix-blend-mode: multiply;
      }

      .cls-2 {
        fill: url(#linear-gradient-5);
      }

      .cls-3 {
        fill: url(#linear-gradient-3);
      }

      .cls-26 {
        filter: url(#luminosity-noclip-7);
      }

      .cls-27 {
        filter: url(#luminosity-noclip-3);
      }

      .cls-28 {
        filter: url(#luminosity-noclip-5);
      }

      .cls-29 {
        mask: url(#mask);
      }

      .cls-4 {
        fill: #f3f3f3;
        fill-rule: evenodd;
        mix-blend-mode: soft-light;
      }

      .cls-30 {
        filter: url(#luminosity-noclip);
      }

      .cls-5 {
        fill: url(#radial-gradient);
      }

      .cls-6 {
        fill: url(#linear-gradient);
      }

      .cls-7 {
        fill: #f9b548;
        opacity: .38;
      }

      .cls-8 {
        fill: url(#linear-gradient-2);
        opacity: .1;
      }

      .cls-9 {
        fill: url(#linear-gradient-4);
        opacity: .41;
      }

      .cls-9, .cls-12 {
        mix-blend-mode: screen;
      }

      .cls-10 {
        fill: #a45302;
        opacity: .24;
      }

      .cls-11 {
        fill: url(#linear-gradient-9);
      }

      .cls-12 {
        fill: url(#linear-gradient-8);
        opacity: .48;
      }

      .cls-31 {
        isolation: isolate;
      }

      .cls-13 {
        fill: url(#linear-gradient-6);
        opacity: .22;
      }

      .cls-32 {
        mask: url(#mask-3);
      }

      .cls-33 {
        mask: url(#mask-2);
      }

      .cls-34 {
        mask: url(#mask-5);
      }

      .cls-35 {
        mask: url(#mask-4);
      }

      .cls-36 {
        mask: url(#mask-1);
      }

      .cls-37 {
        mask: url(#mask-7);
      }

      .cls-38 {
        mask: url(#mask-6);
      }

      .cls-14 {
        fill: #f4cc4d;
      }

      .cls-15 {
        fill: #f99653;
      }

      .cls-16 {
        fill: #f9eecf;
      }

      .cls-17 {
        fill: #d2650a;
      }

      .cls-18 {
        fill: #d76510;
      }

      .cls-19 {
        fill: #d6d6d6;
      }

      .cls-20 {
        fill: #ba530d;
      }

      .cls-21 {
        fill: #f15a24;
      }

      .cls-22 {
        fill: #fc7b1d;
      }

      .cls-23 {
        fill: #e6e6e6;
      }

      .cls-24 {
        fill: #f4dc90;
      }

      .cls-25 {
        fill: #f5c300;
      }
    </style>
    <filter id="luminosity-noclip" x="55.14" y="31.17" width="31.32" height="26.7" color-interpolation-filters="sRGB" filterUnits="userSpaceOnUse">
      <feFlood flood-color="#fff" result="bg"/>
      <feBlend in="SourceGraphic" in2="bg"/>
    </filter>
    <filter id="luminosity-noclip-2" x="55.14" y="-2626.49" width="31.32" height="32766" color-interpolation-filters="sRGB" filterUnits="userSpaceOnUse">
      <feFlood flood-color="#fff" result="bg"/>
      <feBlend in="SourceGraphic" in2="bg"/>
    </filter>
    <mask id="mask-1" x="55.14" y="-2626.49" width="31.32" height="32766" maskUnits="userSpaceOnUse"/>
    <linearGradient id="linear-gradient" x1="3894.46" y1="-3507.8" x2="3865.76" y2="-3527.79" gradientTransform="translate(-3441.65 -3839.6) rotate(90.08)" gradientUnits="userSpaceOnUse">
      <stop offset="0" stop-color="#000"/>
      <stop offset=".22" stop-color="#393939"/>
      <stop offset=".76" stop-color="#c6c6c6"/>
      <stop offset="1" stop-color="#fff"/>
    </linearGradient>
    <mask id="mask" x="55.14" y="31.17" width="31.32" height="26.7" maskUnits="userSpaceOnUse">
      <g class="cls-30">
        <g class="cls-36">
          <path class="cls-6" d="M69.13,31.17l-13.99,22.35s16.12,4.56,17.53,4.34c3-.46,13.79-23.23,13.79-23.23l-17.33-3.46Z"/>
        </g>
      </g>
    </mask>
    <linearGradient id="linear-gradient-2" x1="3889.12" y1="-3510.02" x2="3864.98" y2="-3526.83" gradientTransform="translate(-3441.65 -3839.6) rotate(90.08)" gradientUnits="userSpaceOnUse">
      <stop offset="0" stop-color="#fff"/>
      <stop offset=".22" stop-color="#d3c9c5"/>
      <stop offset=".76" stop-color="#694538"/>
      <stop offset="1" stop-color="#3f1000"/>
    </linearGradient>
    <filter id="luminosity-noclip-3" x="60.41" y="35.1" width="93.59" height="20.15" color-interpolation-filters="sRGB" filterUnits="userSpaceOnUse">
      <feFlood flood-color="#fff" result="bg"/>
      <feBlend in="SourceGraphic" in2="bg"/>
    </filter>
    <filter id="luminosity-noclip-4" x="60.41" y="-2626.49" width="93.59" height="32766" color-interpolation-filters="sRGB" filterUnits="userSpaceOnUse">
      <feFlood flood-color="#fff" result="bg"/>
      <feBlend in="SourceGraphic" in2="bg"/>
    </filter>
    <mask id="mask-3" x="60.41" y="-2626.49" width="93.59" height="32766" maskUnits="userSpaceOnUse"/>
    <linearGradient id="linear-gradient-3" x1="3879.61" y1="-3507.68" x2="3879.61" y2="-3601.25" xlink:href="#linear-gradient"/>
    <mask id="mask-2" x="60.41" y="35.1" width="93.59" height="20.15" maskUnits="userSpaceOnUse">
      <g class="cls-27">
        <g class="cls-32">
          <path class="cls-3" d="M60.45,50.65s-.04-.02-.04-.02l.04-.6.17-2.83s22.74,5.58,41.72,4.5c19.82-1.13,51.17-16.37,51.66-16.6-.03.02-.05.04-.07.06-.53.42-3.95,3.06-9.84,6.3-2.21,1.22-4.77,2.51-7.65,3.82-.05.03-.1.05-.15.07-5.02,2.18-9.34,3.7-10.98,4.25-.21.07-.38.13-.5.16-.05.02-.1.04-.15.05-.04.02-.06.02-.06.02-.26.09-.52.17-.78.25-.42.13-.83.26-1.26.39-.58.18-1.17.35-1.77.52-4.66,1.33-9.16,2.29-13.46,2.96-.33.06-.66.11-1,.15-.36.06-.72.11-1.07.16-25.78,3.53-43.94-3.25-44.83-3.59Z"/>
        </g>
      </g>
    </mask>
    <linearGradient id="linear-gradient-4" x1="3879.61" y1="-3507.68" x2="3879.61" y2="-3601.25" gradientTransform="translate(-3441.65 -3839.6) rotate(90.08)" gradientUnits="userSpaceOnUse">
      <stop offset="0" stop-color="#fff"/>
      <stop offset="1" stop-color="#fff"/>
    </linearGradient>
    <filter id="luminosity-noclip-5" x="86.84" y="32.1" width="40" height="22.94" color-interpolation-filters="sRGB" filterUnits="userSpaceOnUse">
      <feFlood flood-color="#fff" result="bg"/>
      <feBlend in="SourceGraphic" in2="bg"/>
    </filter>
    <filter id="luminosity-noclip-6" x="86.84" y="-2626.49" width="40" height="32766" color-interpolation-filters="sRGB" filterUnits="userSpaceOnUse">
      <feFlood flood-color="#fff" result="bg"/>
      <feBlend in="SourceGraphic" in2="bg"/>
    </filter>
    <mask id="mask-5" x="86.84" y="-2626.49" width="40" height="32766" maskUnits="userSpaceOnUse"/>
    <linearGradient id="linear-gradient-5" x1="3898.46" y1="-3543.03" x2="3869.01" y2="-3563.53" xlink:href="#linear-gradient"/>
    <mask id="mask-4" x="86.84" y="32.1" width="40" height="22.94" maskUnits="userSpaceOnUse">
      <g class="cls-28">
        <g class="cls-34">
          <path class="cls-2" d="M108.39,32.1l-21.56,22.94s26.04-2.31,29.09-3.49c3.04-1.18,10.91-10.39,10.91-10.39l-18.44-9.06Z"/>
        </g>
      </g>
    </mask>
    <linearGradient id="linear-gradient-6" x1="3898.46" y1="-3543.03" x2="3869.01" y2="-3563.53" xlink:href="#linear-gradient-2"/>
    <filter id="luminosity-noclip-7" x="60.67" y="14.71" width="92.89" height="20.29" color-interpolation-filters="sRGB" filterUnits="userSpaceOnUse">
      <feFlood flood-color="#fff" result="bg"/>
      <feBlend in="SourceGraphic" in2="bg"/>
    </filter>
    <filter id="luminosity-noclip-8" x="60.67" y="-2626.49" width="92.89" height="32766" color-interpolation-filters="sRGB" filterUnits="userSpaceOnUse">
      <feFlood flood-color="#fff" result="bg"/>
      <feBlend in="SourceGraphic" in2="bg"/>
    </filter>
    <mask id="mask-7" x="60.67" y="-2626.49" width="92.89" height="32766" maskUnits="userSpaceOnUse"/>
    <linearGradient id="linear-gradient-7" x1="3859.3" y1="-3507.89" x2="3859.3" y2="-3600.8" xlink:href="#linear-gradient"/>
    <mask id="mask-6" x="60.67" y="14.71" width="92.89" height="20.29" maskUnits="userSpaceOnUse">
      <g class="cls-26">
        <g class="cls-37">
          <path class="cls-1" d="M153.56,35s-45.07-20.29-92.63-12.75l-.26-4.31s30.76-8.56,63.43,2.22c0,0,19.08,6.1,29.46,14.84Z"/>
        </g>
      </g>
    </mask>
    <linearGradient id="linear-gradient-8" x1="3859.3" y1="-3507.89" x2="3859.3" y2="-3600.8" xlink:href="#linear-gradient-4"/>
    <radialGradient id="radial-gradient" cx="3869.52" cy="-3562.6" fx="3869.52" fy="-3562.6" r="15.07" gradientTransform="translate(3973.17 -3540.23) rotate(179.81)" gradientUnits="userSpaceOnUse">
      <stop offset="0" stop-color="#e7e4e1"/>
      <stop offset="0" stop-color="#f2f1ef"/>
      <stop offset="0" stop-color="#fff"/>
      <stop offset=".13" stop-color="#f0f0f0"/>
      <stop offset=".39" stop-color="#c9cacb"/>
      <stop offset=".52" stop-color="#b3b4b6"/>
      <stop offset=".61" stop-color="#a9abad"/>
      <stop offset=".75" stop-color="#8f9395"/>
      <stop offset=".93" stop-color="#646d6f"/>
      <stop offset="1" stop-color="#535d5f"/>
    </radialGradient>
    <linearGradient id="linear-gradient-9" x1="3856.98" y1="-3562.6" x2="3882.06" y2="-3562.6" gradientTransform="translate(3984.89 -3527.54) rotate(-180)" gradientUnits="userSpaceOnUse">
      <stop offset="0" stop-color="#daf4fc"/>
      <stop offset=".45" stop-color="#b1e9fa"/>
      <stop offset="1" stop-color="#9dd9f2"/>
    </linearGradient>
  </defs>
  <g class="cls-31">
    <g id="Layer_1" data-name="Layer 1">
      <g>
        <g id="Rocket">
          <g>
            <g>
              <path class="cls-15" d="M58.74,23.6h0c-15.2-6.3-32.6-4.09-45.74,5.81l-7.01,5.28,53.16.89-.41-11.98Z"/>
              <path class="cls-22" d="M58.71,45.76h0c-15.22,6.26-32.61,4-45.72-5.94l-7-5.3,53.16-.74-.45,11.98Z"/>
            </g>
            <g>
              <path class="cls-14" d="M58.43,26.38h0c-11.38-4.72-24.4-3.06-34.24,4.35l-5.25,3.95,39.79.67-.31-8.97Z"/>
              <path class="cls-25" d="M58.4,42.97h0c-11.39,4.68-24.41,2.99-34.22-4.44l-5.24-3.97,39.79-.55-.33,8.96Z"/>
            </g>
            <g>
              <path class="cls-16" d="M56.65,29.61h0c-6.95-2.88-14.9-1.87-20.91,2.65l-3.21,2.41,24.3.41-.19-5.48Z"/>
              <path class="cls-24" d="M56.64,39.74h0c-6.96,2.86-14.91,1.83-20.9-2.71l-3.2-2.42,24.3-.34-.2,5.47Z"/>
            </g>
          </g>
          <polygon class="cls-20" points="58.26 51.02 58.31 18.77 61.3 19.16 61.25 50.64 58.26 51.02"/>
          <path class="cls-22" d="M86.89,14.66s-6.95-8.94-10.38-10.11c-6.62-2.27-27.81,3.1-27.81,3.1l11.79,11.56,26.4-4.55h0Z"/>
          <path class="cls-18" d="M86.84,55.39s-6.98,8.92-10.41,10.08c-6.62,2.25-27.8-3.18-27.8-3.18l11.82-11.53,26.39,4.63h0Z"/>
          <path class="cls-10" d="M84.56,57.59s-10.93,1.23-26.16-4.84l2.01-2.12,26.42,4.75-2.27,2.2Z"/>
          <path class="cls-7" d="M86.89,14.71s-8.82-6.14-14.21-7.24c-14.76-3.01-23.99.23-23.99.23,0,0,21.19-5.37,27.81-3.1,3.43,1.18,10.38,10.11,10.38,10.11Z"/>
          <path class="cls-23" d="M154,35.1l-93.53-.13.02-15.75c7.37-2.69,16.94-4.62,29.21-4.55,18.33.1,33.49,4.5,44.48,9.2,3.89,1.66,7.25,3.35,10.05,4.9h0c6.21,3.45,9.63,6.2,9.78,6.33h0Z"/>
          <path class="cls-19" d="M89.64,55.34c-12.27.03-21.83-1.92-29.2-4.63l.02-15.76,93.53.13h0s-.05.05-.07.06c-.53.42-3.95,3.06-9.84,6.3-2.21,1.22-4.77,2.51-7.65,3.82-.05.03-.1.05-.15.07-.72.33-1.47.65-2.23.97-2.56,1.08-5.34,2.14-8.34,3.14-.15.05-.29.1-.41.14-.21.07-.38.13-.5.16-.05.02-.1.04-.15.05-.28.09-.56.18-.84.27-.42.13-.83.26-1.26.39-4.63,1.4-9.72,2.61-15.22,3.48-.33.06-.66.11-1,.15-.36.06-.72.11-1.07.16-4.91.69-10.13,1.09-15.63,1.11Z"/>
          <path class="cls-21" d="M134.06,46.31c1.64-3.92,2.18-7.79,2.14-11.24h0c-.04-4.99-1.25-9.1-2.02-11.21,3.89,1.66,7.25,3.35,10.05,4.9h0c1.03,2.26,1.37,4.42,1.35,6.31h0c-.04,2.94-.94,5.26-1.48,6.38-2.8,1.54-6.16,3.22-10.03,4.86Z"/>
          <g class="cls-29">
            <path class="cls-8" d="M64.27,34.67l-3.82,16.08s13.38,3.91,14.79,3.69l11.22-19.82-22.19.05Z"/>
          </g>
          <path class="cls-22" d="M86.87,34.78s-5.91-3.02-8.08-3.28c-7.68-.93-30.12,3.23-30.12,3.23l38.2.06Z"/>
          <path class="cls-17" d="M86.87,34.71s-5.92,3-8.09,3.26c-7.69.91-30.12-3.32-30.12-3.32l38.2.06Z"/>
          <g class="cls-33">
            <path class="cls-9" d="M60.45,50.65s-.04-.02-.04-.02l.04-.6.17-2.83s22.74,5.58,41.72,4.5c19.82-1.13,51.17-16.37,51.66-16.6-.03.02-.05.04-.07.06-.53.42-3.95,3.06-9.84,6.3-2.21,1.22-4.77,2.51-7.65,3.82-.05.03-.1.05-.15.07-5.02,2.18-9.34,3.7-10.98,4.25-.21.07-.38.13-.5.16-.05.02-.1.04-.15.05-.04.02-.06.02-.06.02-.26.09-.52.17-.78.25-.42.13-.83.26-1.26.39-.58.18-1.17.35-1.77.52-4.66,1.33-9.16,2.29-13.46,2.96-.33.06-.66.11-1,.15-.36.06-.72.11-1.07.16-25.78,3.53-43.94-3.25-44.83-3.59Z"/>
          </g>
          <g>
            <g class="cls-35">
              <path class="cls-13" d="M108.39,32.1l-21.56,22.94s26.04-2.31,29.09-3.49c3.04-1.18,10.91-10.39,10.91-10.39l-18.44-9.06Z"/>
            </g>
            <g class="cls-38">
              <path class="cls-12" d="M153.56,35s-45.07-20.29-92.63-12.75l-.26-4.31s30.76-8.56,63.43,2.22c0,0,19.08,6.1,29.46,14.84Z"/>
            </g>
          </g>
        </g>
        <circle class="cls-5" cx="115.37" cy="35.06" r="15.07" transform="translate(79.76 150.26) rotate(-89.73)"/>
        <circle class="cls-11" cx="115.37" cy="35.06" r="12.54" transform="translate(80.14 150.38) rotate(-89.92)"/>
        <path class="cls-4" d="M110.9,31.03c5.49,0,9.93,4.46,9.92,9.95,0,.74-.09,1.46-.24,2.15,3.02-1.7,5.06-4.93,5.07-8.64,0-5.49-4.43-9.94-9.92-9.95-4.75,0-8.72,3.32-9.7,7.77,1.44-.81,3.11-1.28,4.88-1.28Z"/>
      </g>
    </g>
  </g>
</svg>