<?xml version="1.0" encoding="UTF-8"?><svg xmlns="http://www.w3.org/2000/svg" xmlns:xlink="http://www.w3.org/1999/xlink" viewBox="0 0 120 40.57"><defs><style>.cls-1{fill:#93d3e9;mix-blend-mode:overlay;opacity:.42;}.cls-1,.cls-2,.cls-3,.cls-4,.cls-5,.cls-6,.cls-7,.cls-8,.cls-9,.cls-10,.cls-11,.cls-12,.cls-13,.cls-14,.cls-15{stroke-width:0px;}.cls-1,.cls-2,.cls-4,.cls-5,.cls-6,.cls-7,.cls-8,.cls-9,.cls-10,.cls-11,.cls-12,.cls-13{fill-rule:evenodd;}.cls-2{fill:#f3f3f3;mix-blend-mode:soft-light;}.cls-3{fill:url(#radial-gradient);}.cls-4{fill:url(#linear-gradient);}.cls-5{fill:url(#linear-gradient-3);}.cls-6{fill:url(#linear-gradient-2);}.cls-7{fill:url(#linear-gradient-4);}.cls-8{fill:url(#linear-gradient-5);}.cls-9{fill:url(#linear-gradient-7);}.cls-10{fill:url(#linear-gradient-6);}.cls-11{fill:#4c4747;}.cls-12{fill:#d05862;}.cls-13{fill:#c44e59;}.cls-14{fill:url(#linear-gradient-8);}.cls-16{isolation:isolate;}.cls-15{fill:#7b7b7b;}</style><linearGradient id="linear-gradient" x1="1592.66" y1="-2069.46" x2="1649.39" y2="-2035.13" gradientTransform="translate(-2029.41 -1612.13) rotate(90.08)" gradientUnits="userSpaceOnUse"><stop offset="0" stop-color="#c23d41"/><stop offset=".13" stop-color="#e04d3e"/><stop offset=".21" stop-color="#c34c3a"/><stop offset=".47" stop-color="#ee6a5a"/><stop offset=".52" stop-color="#ee6454"/><stop offset=".75" stop-color="#ee5141"/><stop offset=".92" stop-color="#ee4b3b"/><stop offset="1" stop-color="#c14c33"/></linearGradient><linearGradient id="linear-gradient-2" x1="1615.74" y1="-2051.33" x2="1597.81" y2="-2061.93" xlink:href="#linear-gradient"/><linearGradient id="linear-gradient-3" x1="-1975.89" y1="-2069.46" x2="-1919.15" y2="-2035.13" gradientTransform="translate(-2028.97 -1921.77) rotate(-89.92) scale(1 -1)" xlink:href="#linear-gradient"/><linearGradient id="linear-gradient-4" x1="-1952.81" y1="-2051.33" x2="-1970.74" y2="-2061.93" gradientTransform="translate(-2028.97 -1921.77) rotate(-89.92) scale(1 -1)" xlink:href="#linear-gradient"/><linearGradient id="linear-gradient-5" x1="1566.36" y1="-2102.66" x2="1672.67" y2="-2102.66" gradientTransform="translate(-2029.41 -1612.13) rotate(90.08)" gradientUnits="userSpaceOnUse"><stop offset="0" stop-color="#e7e4e1"/><stop offset="0" stop-color="#e0dbd9"/><stop offset=".07" stop-color="#d1cccb"/><stop offset=".2" stop-color="#aaa6a9"/><stop offset=".26" stop-color="#938f95"/><stop offset=".52" stop-color="#f4f5f5"/><stop offset=".59" stop-color="#e5e6e6"/><stop offset=".71" stop-color="#c1bfc1"/><stop offset=".88" stop-color="#898489"/><stop offset="1" stop-color="#d4d6d7"/><stop offset="1" stop-color="#adafb2"/></linearGradient><linearGradient id="linear-gradient-6" x1="1609.1" y1="-2095.69" x2="1649.98" y2="-2095.69" xlink:href="#linear-gradient"/><linearGradient id="linear-gradient-7" x1="1610.01" y1="-2141.34" x2="1653.75" y2="-2141.34" xlink:href="#linear-gradient"/><radialGradient id="radial-gradient" cx="1551.74" cy="-2177.56" fx="1551.74" fy="-2177.56" r="10.39" gradientTransform="translate(1461.26 -1953.47) rotate(179.81) scale(.9)" gradientUnits="userSpaceOnUse"><stop offset="0" stop-color="#e7e4e1"/><stop offset="0" stop-color="#f2f1ef"/><stop offset="0" stop-color="#fff"/><stop offset=".13" stop-color="#f0f0f0"/><stop offset=".39" stop-color="#c9cacb"/><stop offset=".52" stop-color="#b3b4b6"/><stop offset=".61" stop-color="#a9abad"/><stop offset=".75" stop-color="#8f9395"/><stop offset=".93" stop-color="#646d6f"/><stop offset="1" stop-color="#535d5f"/></radialGradient><linearGradient id="linear-gradient-8" x1="1621.3" y1="-2096.46" x2="1636.93" y2="-2096.46" gradientTransform="translate(1693.81 -2076.46) rotate(-180)" gradientUnits="userSpaceOnUse"><stop offset="0" stop-color="#daf4fc"/><stop offset=".45" stop-color="#b1e9fa"/><stop offset="1" stop-color="#9dd9f2"/></linearGradient></defs><g class="cls-16"><g id="Layer_2"><g id="Layer_1-2"><path class="cls-4" d="M44.44,10.7S39.6,2.25,26.91.28C14.21-1.69.04,7.42.04,7.42c5.04-.09,26.6-2.24,24.41,6.31l19.99-3.04Z"/><path class="cls-6" d="M.71,7.4c6.03-.22,25.84-1.89,23.74,6.33l10.17-1.55c-2.72-2.71-7.67-6.32-15.52-7.53-6.39-.99-13.13.72-18.39,2.75Z"/><path class="cls-5" d="M44.41,29.93s-4.86,8.43-17.56,10.37c-12.7,1.93-26.85-7.22-26.85-7.22,5.04.1,26.6,2.32,24.43-6.24l19.98,3.1Z"/><path class="cls-7" d="M.67,33.1c6.03.24,25.84,1.96,23.75-6.26l10.17,1.58c-2.73,2.71-7.69,6.29-15.54,7.49-6.39.97-13.13-.76-18.38-2.8Z"/><rect class="cls-15" x="10.94" y="19.18" width="12.5" height="1.59" rx=".79" ry=".79" transform="translate(-2.81 37.13) rotate(-89.92)"/><path class="cls-11" d="M25.22,26.84l.02-13.71c-2.52.47-4.94.94-7.25,1.4l-.02,10.89c2.31.46,4.74.94,7.25,1.42Z"/><path class="cls-8" d="M21.79,12.43C52.39,6.68,95.3.9,120,20.08c-24.75,19.11-67.65,13.21-98.23,7.37l.02-15.03Z"/><path class="cls-10" d="M46.05,8.57c11.76-1.44,24.08-2.18,35.77-1.27l-.04,25.46c-11.69.88-24,.1-35.76-1.37l.03-22.82Z"/><path class="cls-9" d="M99.14,29.96c7.74-2.05,14.83-5.22,20.86-9.87-6.01-4.67-13.1-7.86-20.83-9.93l-.03,19.8Z"/><path class="cls-1" d="M118.61,20.33l-95.84-.16v5.6s20.51,6.53,51.31,6.57c26.87.04,44.54-12.02,44.54-12.02Z"/><path class="cls-12" d="M44.42,19.98c-17.34-1.95-30.19-1.34-43.31-.06l20.39.55,22.92-.48Z"/><path class="cls-13" d="M44.42,19.98c-17.35,1.9-30.2,1.26-43.31-.06l43.31.06Z"/><circle class="cls-3" cx="64.69" cy="20" r="9.39" transform="translate(44.38 84.6) rotate(-89.73)"/><circle class="cls-14" cx="64.69" cy="20" r="7.82" transform="translate(44.6 84.67) rotate(-89.92)"/><path class="cls-2" d="M61.91,17.49c3.42,0,6.19,2.78,6.18,6.2,0,.46-.06.91-.15,1.34,1.88-1.06,3.16-3.07,3.16-5.39,0-3.42-2.76-6.2-6.18-6.2-2.96,0-5.43,2.07-6.05,4.84.9-.51,1.94-.8,3.04-.8Z"/></g></g></g></svg>