<?xml version="1.0" encoding="UTF-8"?><svg id="Layer_2" xmlns="http://www.w3.org/2000/svg" viewBox="0 0 120 53"><defs><style>.cls-1{opacity:.5;}.cls-1,.cls-2,.cls-3,.cls-4,.cls-5,.cls-6,.cls-7,.cls-8,.cls-9,.cls-10{stroke-width:0px;}.cls-1,.cls-9{fill:#fff;}.cls-2{fill:#e6e6e7;opacity:.3;}.cls-3{fill:#f8ec3a;}.cls-4{fill:#2b2b38;}.cls-5{fill:#aa290b;}.cls-6{fill:#c6421e;}.cls-7{fill:#a5dcf0;}.cls-8{fill:#f0f1f1;}.cls-10{fill:#f05a2a;}</style></defs><g id="Layer_1-2"><path class="cls-10" d="M30.8,27.45c-.13-5.32-6.12-9.88-10.38-9.78-4.26.1-20.42,10.52-20.42,10.52,7.39,2.96,16.71,9.63,20.9,9.53,4.19-.1,10.03-4.94,9.9-10.27Z"/><path class="cls-3" d="M30.49,27.46c-.1-4.35-5-8.08-8.48-7.99-3.49.08-16.69,8.59-16.69,8.59,6.04,2.42,13.65,7.87,17.08,7.79,3.43-.08,8.2-4.04,8.09-8.39Z"/><path class="cls-9" d="M30.53,27.46c-.08-3.35-3.85-6.22-6.54-6.16-2.69.06-12.86,6.62-12.86,6.62,4.65,1.86,10.52,6.06,13.16,6,2.64-.06,6.32-3.11,6.24-6.46Z"/><path class="cls-10" d="M28.6,23.42c.69-3.47-2.53-7.3-5.31-7.86-2.78-.55-14.78,3.85-14.78,3.85,4.36,3,9.44,8.68,12.17,9.23,2.73.55,7.23-1.74,7.92-5.22Z"/><path class="cls-3" d="M28.39,23.37c.57-2.84-2.07-5.97-4.34-6.42-2.27-.45-12.08,3.15-12.08,3.15,3.56,2.45,7.71,7.1,9.95,7.54,2.23.45,5.91-1.43,6.47-4.26Z"/><path class="cls-9" d="M28.42,23.38c.44-2.19-1.59-4.6-3.34-4.95-1.75-.35-9.31,2.43-9.31,2.43,2.75,1.89,5.94,5.47,7.67,5.81,1.72.34,4.55-1.1,4.99-3.29Z"/><path class="cls-10" d="M29.43,25.01c-.89-2.07-3.96-2.9-5.61-2.19-1.65.72-6.33,7.35-6.33,7.35,3.36-.01,8.07,1.12,9.69.42,1.63-.7,3.15-3.52,2.25-5.59Z"/><path class="cls-3" d="M29.32,25.06c-.73-1.69-3.24-2.37-4.59-1.79-1.35.58-5.17,6.01-5.17,6.01,2.75,0,6.59.92,7.92.34,1.33-.58,2.57-2.88,1.84-4.57Z"/><path class="cls-9" d="M29.33,25.05c-.56-1.3-2.5-1.83-3.54-1.38-1.04.45-3.99,4.63-3.99,4.63,2.12,0,5.08.71,6.11.26,1.02-.44,1.98-2.22,1.42-3.52Z"/><path class="cls-6" d="M55.74,14.15s-3.75-6.56-10.39-9.81C36.93.21,24.01-.9,23.19.7c-.82,1.6,5.38,3.54,9.02,6.77,6.02,5.35,5.65,9.95,5.65,9.95l17.88-3.28Z"/><path class="cls-5" d="M55.7,38.93s-3.76,6.55-10.41,9.78c-8.44,4.1-21.35,5.17-22.17,3.57-.82-1.6,5.39-3.53,9.04-6.75,6.03-5.33,5.68-9.93,5.68-9.93l17.87,3.33Z"/><path class="cls-4" d="M27.36,36.12c2.28.74,18.32,5.7,38.26,5.73,16.49.02,25.86-9.48,30.49-15.24-4.61-5.77-13.96-15.31-30.44-15.33-19.94-.03-36,4.89-38.27,5.62l-.03,19.23Z"/><path class="cls-9" d="M74.71,7.22c-25.24-.04-40.24,6.19-43.12,7.12l-.04,24.34c2.88.94,17.86,7.21,43.1,7.24,11.12.02,21.61-3.39,29.86-7.69l.03-23.25c-8.24-4.32-18.71-7.76-29.84-7.77Z"/><path class="cls-6" d="M120,26.64c-2.73-3.41-8.23-7.87-15.45-11.65l-.03,23.25c7.23-3.76,12.75-8.2,15.49-11.6Z"/><path class="cls-8" d="M104.51,38.24l.02-11.62-72.96-.11-.02,12.17c2.88.94,17.86,7.21,43.1,7.24,11.12.02,21.61-3.39,29.86-7.69Z"/><path class="cls-7" d="M92.79,27.66c0-6.45-5.21-11.68-11.66-11.69-6.45,0-11.68,5.21-11.69,11.66,0,6.45,5.21,11.68,11.66,11.69s11.68-5.21,11.69-11.66Z"/><path class="cls-4" d="M74.21,39.67c6.64,3.78,15.09,1.46,18.87-5.19,3.78-6.65,1.46-15.1-5.19-18.87-6.65-3.78-15.09-1.46-18.87,5.19-3.78,6.65-1.46,15.09,5.19,18.87ZM75.72,37.02c-5.18-2.94-6.99-9.53-4.04-14.7,2.94-5.18,9.53-6.99,14.7-4.04,5.18,2.94,6.99,9.53,4.04,14.7-2.94,5.18-9.53,6.99-14.7,4.04Z"/><path class="cls-2" d="M75.23,37.89c5.66,3.22,12.85,1.24,16.07-4.42,3.22-5.66,1.24-12.85-4.42-16.07-5.66-3.22-12.85-1.24-16.07,4.42-3.22,5.66-1.24,12.85,4.42,16.07Z"/><path class="cls-1" d="M77.79,18.55c3.87-1.28,8.29.01,10.8,3.5,2.51,3.48,2.35,8.08-.09,11.36,0,0-2.25-5.58-4.36-8.51-2.18-3.02-6.36-6.35-6.36-6.35Z"/><path class="cls-6" d="M52.74,26.59h0s0-.01,0-.01c0-1.64-2.54-2.74-5.95-2.75-3.41,0-23.71.33-23.71,2.7h0s0,.01,0,.01c0,2.37,20.29,2.76,23.7,2.77,3.41,0,5.96-1.09,5.96-2.73Z"/><path class="cls-5" d="M104.53,26.61l-.02,11.63c7.23-3.76,12.75-8.2,15.49-11.6,0,0,0,0,0,0l-15.47-.02Z"/><path class="cls-5" d="M52.74,26.59h0s-29.66-.05-29.66-.05h0c0,2.38,20.29,2.77,23.7,2.78,3.41,0,5.96-1.09,5.96-2.73Z"/></g></svg>