<?xml version="1.0" encoding="UTF-8"?><svg xmlns="http://www.w3.org/2000/svg" xmlns:xlink="http://www.w3.org/1999/xlink" viewBox="0 0 120 50.29"><defs><style>.cls-1{fill:url(#linear-gradient-7);}.cls-1,.cls-2,.cls-3,.cls-4,.cls-5,.cls-6,.cls-7,.cls-8,.cls-9,.cls-10,.cls-11,.cls-12,.cls-13,.cls-14,.cls-15,.cls-16,.cls-17,.cls-18,.cls-19,.cls-20,.cls-21,.cls-22,.cls-23,.cls-24,.cls-25{stroke-width:0px;}.cls-1,.cls-2,.cls-3,.cls-6,.cls-8,.cls-13{mix-blend-mode:multiply;}.cls-2{fill:url(#linear-gradient-5);}.cls-3{fill:url(#linear-gradient-3);}.cls-26{filter:url(#luminosity-noclip-7);}.cls-27{filter:url(#luminosity-noclip-3);}.cls-28{filter:url(#luminosity-noclip-5);}.cls-29{mask:url(#mask);}.cls-4{fill:#f3f3f3;fill-rule:evenodd;mix-blend-mode:soft-light;}.cls-30{filter:url(#luminosity-noclip);}.cls-5{fill:url(#radial-gradient);}.cls-6{fill:url(#linear-gradient);}.cls-7{fill:#f9b548;opacity:.38;}.cls-8{fill:url(#linear-gradient-2);opacity:.1;}.cls-9{fill:url(#linear-gradient-4);opacity:.41;}.cls-9,.cls-12{mix-blend-mode:screen;}.cls-10{fill:#a45302;opacity:.24;}.cls-11{fill:url(#linear-gradient-9);}.cls-12{fill:url(#linear-gradient-8);opacity:.48;}.cls-31{isolation:isolate;}.cls-13{fill:url(#linear-gradient-6);opacity:.22;}.cls-32{mask:url(#mask-3);}.cls-33{mask:url(#mask-2);}.cls-34{mask:url(#mask-5);}.cls-35{mask:url(#mask-4);}.cls-36{mask:url(#mask-1);}.cls-37{mask:url(#mask-7);}.cls-38{mask:url(#mask-6);}.cls-14{fill:#f4cc4d;}.cls-15{fill:#f99653;}.cls-16{fill:#f9eecf;}.cls-17{fill:#d2650a;}.cls-18{fill:#d76510;}.cls-19{fill:#d6d6d6;}.cls-20{fill:#ba530d;}.cls-21{fill:#f15a24;}.cls-22{fill:#fc7b1d;}.cls-23{fill:#e6e6e6;}.cls-24{fill:#f4dc90;}.cls-25{fill:#f5c300;}</style><filter id="luminosity-noclip" x="39.85" y="22.04" width="25.39" height="21.65" color-interpolation-filters="sRGB" filterUnits="userSpaceOnUse"><feFlood flood-color="#fff" result="bg"/><feBlend in="SourceGraphic" in2="bg"/></filter><filter id="luminosity-noclip-2" x="39.85" y="-4642.63" width="25.39" height="32766" color-interpolation-filters="sRGB" filterUnits="userSpaceOnUse"><feFlood flood-color="#fff" result="bg"/><feBlend in="SourceGraphic" in2="bg"/></filter><mask id="mask-1" x="39.85" y="-4642.63" width="25.39" height="32766" maskUnits="userSpaceOnUse"/><linearGradient id="linear-gradient" x1="1457.18" y1="-1878.42" x2="1433.91" y2="-1894.63" gradientTransform="translate(-1832.11 -1414.54) rotate(90.08)" gradientUnits="userSpaceOnUse"><stop offset="0" stop-color="#000"/><stop offset=".22" stop-color="#393939"/><stop offset=".76" stop-color="#c6c6c6"/><stop offset="1" stop-color="#fff"/></linearGradient><mask id="mask" x="39.85" y="22.04" width="25.39" height="21.65" maskUnits="userSpaceOnUse"><g class="cls-30"><g class="cls-36"><path class="cls-6" d="M51.19,22.04l-11.34,18.12s13.07,3.7,14.21,3.52c2.43-.37,11.18-18.83,11.18-18.83l-14.05-2.81Z"/></g></g></mask><linearGradient id="linear-gradient-2" x1="1452.85" y1="-1880.22" x2="1433.28" y2="-1893.85" gradientTransform="translate(-1832.11 -1414.54) rotate(90.08)" gradientUnits="userSpaceOnUse"><stop offset="0" stop-color="#fff"/><stop offset=".22" stop-color="#d3c9c5"/><stop offset=".76" stop-color="#694538"/><stop offset="1" stop-color="#3f1000"/></linearGradient><filter id="luminosity-noclip-3" x="44.12" y="25.22" width="75.88" height="16.34" color-interpolation-filters="sRGB" filterUnits="userSpaceOnUse"><feFlood flood-color="#fff" result="bg"/><feBlend in="SourceGraphic" in2="bg"/></filter><filter id="luminosity-noclip-4" x="44.12" y="-4642.63" width="75.88" height="32766" color-interpolation-filters="sRGB" filterUnits="userSpaceOnUse"><feFlood flood-color="#fff" result="bg"/><feBlend in="SourceGraphic" in2="bg"/></filter><mask id="mask-3" x="44.12" y="-4642.63" width="75.88" height="32766" maskUnits="userSpaceOnUse"/><linearGradient id="linear-gradient-3" x1="1445.14" y1="-1878.33" x2="1445.14" y2="-1954.19" xlink:href="#linear-gradient"/><mask id="mask-2" x="44.12" y="25.22" width="75.88" height="16.34" maskUnits="userSpaceOnUse"><g class="cls-27"><g class="cls-32"><path class="cls-3" d="M44.15,37.83s-.03-.01-.03-.01l.03-.48.14-2.29s18.44,4.52,33.83,3.65c16.07-.91,41.49-13.27,41.88-13.46-.02.02-.04.03-.06.05-.43.34-3.2,2.48-7.98,5.11-1.79.99-3.86,2.04-6.2,3.09-.04.02-.08.04-.12.05-4.07,1.77-7.57,3-8.9,3.45-.17.06-.31.1-.4.13-.04.01-.08.03-.12.04-.03.01-.05.02-.05.02-.21.07-.42.13-.64.2-.34.11-.67.21-1.02.31-.47.14-.95.28-1.43.42-3.78,1.08-7.42,1.86-10.91,2.4-.27.04-.54.09-.81.12-.29.04-.58.09-.87.13-20.9,2.86-35.62-2.64-36.34-2.91Z"/></g></g></mask><linearGradient id="linear-gradient-4" x1="1445.14" y1="-1878.33" x2="1445.14" y2="-1954.19" gradientTransform="translate(-1832.11 -1414.54) rotate(90.08)" gradientUnits="userSpaceOnUse"><stop offset="0" stop-color="#fff"/><stop offset="1" stop-color="#fff"/></linearGradient><filter id="luminosity-noclip-5" x="65.54" y="22.79" width="32.43" height="18.6" color-interpolation-filters="sRGB" filterUnits="userSpaceOnUse"><feFlood flood-color="#fff" result="bg"/><feBlend in="SourceGraphic" in2="bg"/></filter><filter id="luminosity-noclip-6" x="65.54" y="-4642.63" width="32.43" height="32766" color-interpolation-filters="sRGB" filterUnits="userSpaceOnUse"><feFlood flood-color="#fff" result="bg"/><feBlend in="SourceGraphic" in2="bg"/></filter><mask id="mask-5" x="65.54" y="-4642.63" width="32.43" height="32766" maskUnits="userSpaceOnUse"/><linearGradient id="linear-gradient-5" x1="1460.42" y1="-1906.98" x2="1436.55" y2="-1923.61" xlink:href="#linear-gradient"/><mask id="mask-4" x="65.54" y="22.79" width="32.43" height="18.6" maskUnits="userSpaceOnUse"><g class="cls-28"><g class="cls-34"><path class="cls-2" d="M83.02,22.79l-17.48,18.6s21.11-1.87,23.58-2.83c2.47-.96,8.85-8.43,8.85-8.43l-14.95-7.34Z"/></g></g></mask><linearGradient id="linear-gradient-6" x1="1460.42" y1="-1906.98" x2="1436.55" y2="-1923.61" xlink:href="#linear-gradient-2"/><filter id="luminosity-noclip-7" x="44.32" y="8.7" width="75.31" height="16.45" color-interpolation-filters="sRGB" filterUnits="userSpaceOnUse"><feFlood flood-color="#fff" result="bg"/><feBlend in="SourceGraphic" in2="bg"/></filter><filter id="luminosity-noclip-8" x="44.32" y="-4642.63" width="75.31" height="32766" color-interpolation-filters="sRGB" filterUnits="userSpaceOnUse"><feFlood flood-color="#fff" result="bg"/><feBlend in="SourceGraphic" in2="bg"/></filter><mask id="mask-7" x="44.32" y="-4642.63" width="75.31" height="32766" maskUnits="userSpaceOnUse"/><linearGradient id="linear-gradient-7" x1="1428.67" y1="-1878.5" x2="1428.67" y2="-1953.83" xlink:href="#linear-gradient"/><mask id="mask-6" x="44.32" y="8.7" width="75.31" height="16.45" maskUnits="userSpaceOnUse"><g class="cls-26"><g class="cls-37"><path class="cls-1" d="M119.64,25.15S83.1,8.7,44.54,14.8l-.21-3.5s24.94-6.94,51.43,1.8c0,0,15.47,4.95,23.88,12.04Z"/></g></g></mask><linearGradient id="linear-gradient-8" x1="1428.67" y1="-1878.5" x2="1428.67" y2="-1953.83" xlink:href="#linear-gradient-4"/><radialGradient id="radial-gradient" cx="1436.96" cy="-1922.85" fx="1436.96" fy="-1922.85" r="12.22" gradientTransform="translate(1519.31 -1902.37) rotate(179.81)" gradientUnits="userSpaceOnUse"><stop offset="0" stop-color="#e7e4e1"/><stop offset="0" stop-color="#f2f1ef"/><stop offset="0" stop-color="#fff"/><stop offset=".13" stop-color="#f0f0f0"/><stop offset=".39" stop-color="#c9cacb"/><stop offset=".52" stop-color="#b3b4b6"/><stop offset=".61" stop-color="#a9abad"/><stop offset=".75" stop-color="#8f9395"/><stop offset=".93" stop-color="#646d6f"/><stop offset="1" stop-color="#535d5f"/></radialGradient><linearGradient id="linear-gradient-9" x1="1426.8" y1="-1922.85" x2="1447.13" y2="-1922.85" gradientTransform="translate(1525.63 -1897.66) rotate(-180)" gradientUnits="userSpaceOnUse"><stop offset="0" stop-color="#daf4fc"/><stop offset=".45" stop-color="#b1e9fa"/><stop offset="1" stop-color="#9dd9f2"/></linearGradient></defs><g class="cls-31"><g id="Layer_2"><g id="Layer_1-2"><g id="Rocket"><path class="cls-15" d="M42.77,15.9h0c-12.32-5.11-26.43-3.32-37.08,4.71L0,24.89l43.1.72-.33-9.71Z"/><path class="cls-22" d="M42.74,33.87h0c-12.34,5.07-26.44,3.24-37.07-4.81L0,24.75l43.1-.6-.36,9.71Z"/><path class="cls-14" d="M42.51,18.16h0c-9.22-3.82-19.78-2.48-27.76,3.52l-4.25,3.21,32.26.54-.25-7.27Z"/><path class="cls-25" d="M42.49,31.61h0c-9.23,3.8-19.79,2.43-27.75-3.6l-4.25-3.22,32.26-.45-.27,7.27Z"/><path class="cls-16" d="M41.07,20.78h0c-5.63-2.34-12.08-1.52-16.95,2.15l-2.6,1.96,19.7.33-.15-4.44Z"/><path class="cls-24" d="M41.06,28.99h0c-5.64,2.32-12.09,1.48-16.95-2.2l-2.59-1.97,19.7-.27-.17,4.44Z"/><polygon class="cls-20" points="42.38 38.14 42.42 11.99 44.84 12.3 44.8 37.83 42.38 38.14"/><path class="cls-22" d="M65.59,8.65S59.95,1.41,57.17.45c-5.37-1.84-22.55,2.52-22.55,2.52l9.56,9.37,21.41-3.69h0Z"/><path class="cls-18" d="M65.54,41.67s-5.66,7.23-8.44,8.17c-5.37,1.83-22.54-2.58-22.54-2.58l9.59-9.35,21.39,3.75h0Z"/><path class="cls-10" d="M63.7,43.46s-8.86,1-21.21-3.92l1.63-1.72,21.42,3.85-1.84,1.78Z"/><path class="cls-7" d="M65.59,8.69s-7.15-4.98-11.52-5.87c-11.97-2.44-19.45.19-19.45.19,0,0,17.18-4.36,22.55-2.52,2.78.95,8.42,8.2,8.42,8.2Z"/><path class="cls-23" d="M120,25.22l-75.83-.11.02-12.77c5.98-2.18,13.74-3.74,23.68-3.69,14.86.08,27.15,3.65,36.06,7.46,3.15,1.34,5.88,2.72,8.14,3.98h0c5.03,2.79,7.81,5.03,7.93,5.13h0Z"/><path class="cls-19" d="M67.82,41.64c-9.94.03-17.7-1.56-23.67-3.75l.02-12.78,75.83.11h0s-.04.04-.06.05c-.43.34-3.2,2.48-7.98,5.11-1.79.99-3.86,2.04-6.2,3.09-.04.02-.08.04-.12.05-.59.27-1.19.53-1.81.79-2.07.88-4.33,1.74-6.76,2.55-.12.04-.23.08-.33.11-.17.06-.31.1-.4.13-.04.01-.08.03-.12.04-.23.07-.45.15-.68.22-.34.11-.67.21-1.02.31-3.76,1.13-7.88,2.11-12.34,2.82-.27.04-.54.09-.81.12-.29.04-.58.09-.87.13-3.98.56-8.21.89-12.67.9Z"/><path class="cls-21" d="M103.83,34.32c1.33-3.18,1.77-6.32,1.74-9.11h0c-.03-4.05-1.02-7.38-1.64-9.09,3.15,1.34,5.88,2.72,8.14,3.98h0c.84,1.83,1.11,3.58,1.09,5.12h0c-.04,2.38-.77,4.26-1.2,5.17-2.27,1.25-4.99,2.61-8.14,3.94Z"/><g class="cls-29"><path class="cls-8" d="M47.25,24.88l-3.1,13.04s10.85,3.17,11.99,2.99l9.1-16.07-17.99.04Z"/></g><path class="cls-22" d="M65.57,24.97s-4.79-2.45-6.55-2.66c-6.23-.76-24.42,2.62-24.42,2.62l30.97.04Z"/><path class="cls-17" d="M65.57,24.91s-4.8,2.43-6.56,2.64c-6.23.74-24.42-2.69-24.42-2.69l30.97.04Z"/><g class="cls-33"><path class="cls-9" d="M44.15,37.83s-.03-.01-.03-.01l.03-.48.14-2.29s18.44,4.52,33.83,3.65c16.07-.91,41.49-13.27,41.88-13.46-.02.02-.04.03-.06.05-.43.34-3.2,2.48-7.98,5.11-1.79.99-3.86,2.04-6.2,3.09-.04.02-.08.04-.12.05-4.07,1.77-7.57,3-8.9,3.45-.17.06-.31.1-.4.13-.04.01-.08.03-.12.04-.03.01-.05.02-.05.02-.21.07-.42.13-.64.2-.34.11-.67.21-1.02.31-.47.14-.95.28-1.43.42-3.78,1.08-7.42,1.86-10.91,2.4-.27.04-.54.09-.81.12-.29.04-.58.09-.87.13-20.9,2.86-35.62-2.64-36.34-2.91Z"/></g><g class="cls-35"><path class="cls-13" d="M83.02,22.79l-17.48,18.6s21.11-1.87,23.58-2.83c2.47-.96,8.85-8.43,8.85-8.43l-14.95-7.34Z"/></g><g class="cls-38"><path class="cls-12" d="M119.64,25.15S83.1,8.7,44.54,14.8l-.21-3.5s24.94-6.94,51.43,1.8c0,0,15.47,4.95,23.88,12.04Z"/></g></g><circle class="cls-5" cx="88.67" cy="25.19" r="12.21" transform="translate(63.06 113.75) rotate(-89.73)"/><circle class="cls-11" cx="88.67" cy="25.19" r="10.16" transform="translate(63.35 113.83) rotate(-89.92)"/><path class="cls-4" d="M85.05,21.92c4.45,0,8.05,3.62,8.04,8.06,0,.6-.07,1.18-.2,1.74,2.45-1.38,4.1-4,4.11-7,0-4.45-3.59-8.06-8.04-8.06-3.85,0-7.07,2.69-7.87,6.3,1.17-.66,2.52-1.04,3.96-1.04Z"/></g></g></g></svg>