<?xml version="1.0" encoding="UTF-8"?>
<svg xmlns="http://www.w3.org/2000/svg" xmlns:xlink="http://www.w3.org/1999/xlink" viewBox="0 0 200 70">
  <defs>
    <style>
      .cls-1 {
        fill: #93d3e9;
        mix-blend-mode: overlay;
        opacity: .42;
      }

      .cls-1, .cls-2, .cls-3, .cls-4, .cls-5, .cls-6, .cls-7, .cls-8, .cls-9, .cls-10, .cls-11, .cls-12, .cls-13, .cls-14, .cls-15 {
        stroke-width: 0px;
      }

      .cls-1, .cls-2, .cls-4, .cls-5, .cls-6, .cls-7, .cls-8, .cls-9, .cls-10, .cls-11, .cls-12, .cls-13 {
        fill-rule: evenodd;
      }

      .cls-2 {
        fill: #f3f3f3;
        mix-blend-mode: soft-light;
      }

      .cls-3 {
        fill: url(#radial-gradient);
      }

      .cls-4 {
        fill: url(#linear-gradient);
      }

      .cls-5 {
        fill: url(#linear-gradient-3);
      }

      .cls-6 {
        fill: url(#linear-gradient-2);
      }

      .cls-7 {
        fill: url(#linear-gradient-4);
      }

      .cls-8 {
        fill: url(#linear-gradient-5);
      }

      .cls-9 {
        fill: url(#linear-gradient-7);
      }

      .cls-10 {
        fill: url(#linear-gradient-6);
      }

      .cls-11 {
        fill: #4c4747;
      }

      .cls-12 {
        fill: #d05862;
      }

      .cls-13 {
        fill: #c44e59;
      }

      .cls-14 {
        fill: url(#linear-gradient-8);
      }

      .cls-16 {
        isolation: isolate;
      }

      .cls-15 {
        fill: #7b7b7b;
      }
    </style>
    <linearGradient id="linear-gradient" x1="4117.33" y1="-3791.47" x2="4210.06" y2="-3735.35" gradientTransform="translate(-3721.89 -4147.9) rotate(90.08)" gradientUnits="userSpaceOnUse">
      <stop offset="0" stop-color="#c23d41"/>
      <stop offset=".13" stop-color="#e04d3e"/>
      <stop offset=".21" stop-color="#c34c3a"/>
      <stop offset=".47" stop-color="#ee6a5a"/>
      <stop offset=".52" stop-color="#ee6454"/>
      <stop offset=".75" stop-color="#ee5141"/>
      <stop offset=".92" stop-color="#ee4b3b"/>
      <stop offset="1" stop-color="#c14c33"/>
    </linearGradient>
    <linearGradient id="linear-gradient-2" x1="4155.05" y1="-3761.83" x2="4125.75" y2="-3779.16" xlink:href="#linear-gradient"/>
    <linearGradient id="linear-gradient-3" x1="-3707.61" y1="-3791.47" x2="-3614.88" y2="-3735.35" gradientTransform="translate(-3722.65 -3617.9) rotate(-89.92) scale(1 -1)" xlink:href="#linear-gradient"/>
    <linearGradient id="linear-gradient-4" x1="-3669.89" y1="-3761.83" x2="-3699.19" y2="-3779.16" gradientTransform="translate(-3722.65 -3617.9) rotate(-89.92) scale(1 -1)" xlink:href="#linear-gradient"/>
    <linearGradient id="linear-gradient-5" x1="4074.34" y1="-3845.72" x2="4248.1" y2="-3845.72" gradientTransform="translate(-3721.89 -4147.9) rotate(90.08)" gradientUnits="userSpaceOnUse">
      <stop offset="0" stop-color="#e7e4e1"/>
      <stop offset="0" stop-color="#e0dbd9"/>
      <stop offset=".07" stop-color="#d1cccb"/>
      <stop offset=".2" stop-color="#aaa6a9"/>
      <stop offset=".26" stop-color="#938f95"/>
      <stop offset=".52" stop-color="#f4f5f5"/>
      <stop offset=".59" stop-color="#e5e6e6"/>
      <stop offset=".71" stop-color="#c1bfc1"/>
      <stop offset=".88" stop-color="#898489"/>
      <stop offset="1" stop-color="#d4d6d7"/>
      <stop offset="1" stop-color="#adafb2"/>
    </linearGradient>
    <linearGradient id="linear-gradient-6" x1="4144.21" y1="-3834.32" x2="4211.01" y2="-3834.32" xlink:href="#linear-gradient"/>
    <linearGradient id="linear-gradient-7" x1="4145.69" y1="-3908.95" x2="4217.19" y2="-3908.95" xlink:href="#linear-gradient"/>
    <radialGradient id="radial-gradient" cx="4176.92" cy="-3835.59" fx="4176.92" fy="-3835.59" r="15.36" gradientTransform="translate(4271.97 -3814.74) rotate(179.81)" gradientUnits="userSpaceOnUse">
      <stop offset="0" stop-color="#e7e4e1"/>
      <stop offset="0" stop-color="#f2f1ef"/>
      <stop offset="0" stop-color="#fff"/>
      <stop offset=".13" stop-color="#f0f0f0"/>
      <stop offset=".39" stop-color="#c9cacb"/>
      <stop offset=".52" stop-color="#b3b4b6"/>
      <stop offset=".61" stop-color="#a9abad"/>
      <stop offset=".75" stop-color="#8f9395"/>
      <stop offset=".93" stop-color="#646d6f"/>
      <stop offset="1" stop-color="#535d5f"/>
    </radialGradient>
    <linearGradient id="linear-gradient-8" x1="4164.14" y1="-3835.59" x2="4189.69" y2="-3835.59" gradientTransform="translate(4284.59 -3801.05) rotate(-180)" gradientUnits="userSpaceOnUse">
      <stop offset="0" stop-color="#daf4fc"/>
      <stop offset=".45" stop-color="#b1e9fa"/>
      <stop offset="1" stop-color="#9dd9f2"/>
    </linearGradient>
  </defs>
  <g class="cls-16">
    <g id="Layer_1" data-name="Layer 1">
      <g>
        <g>
          <path class="cls-4" d="M74.56,19.33s-7.9-13.8-28.65-17.03C25.16-.92,2,13.98,2,13.98c8.23-.14,43.48-3.67,39.89,10.32l32.67-4.97Z"/>
          <path class="cls-6" d="M3.09,13.95c9.85-.36,42.24-3.08,38.79,10.35l16.62-2.53c-4.45-4.43-12.54-10.32-25.36-12.32-10.44-1.62-21.46,1.18-30.05,4.49Z"/>
        </g>
        <g>
          <path class="cls-5" d="M74.52,50.77s-7.94,13.78-28.7,16.94C25.06,70.87,1.94,55.91,1.94,55.91c8.23.16,43.47,3.79,39.92-10.2l32.66,5.06Z"/>
          <path class="cls-7" d="M3.03,55.94c9.85.39,42.23,3.21,38.82-10.24l16.61,2.58c-4.46,4.42-12.57,10.29-25.4,12.24-10.44,1.59-21.46-1.24-30.04-4.58Z"/>
        </g>
        <rect class="cls-15" x="19.81" y="33.19" width="20.43" height="2.6" rx="1.3" ry="1.3" transform="translate(-4.51 64.46) rotate(-89.92)"/>
        <path class="cls-11" d="M43.16,45.71l.03-22.4c-4.11.77-8.08,1.54-11.86,2.29l-.03,17.79c3.78.75,7.74,1.54,11.85,2.32Z"/>
        <path class="cls-8" d="M37.55,22.16c50.01-9.39,120.15-18.84,160.51,12.51-40.45,31.24-110.56,21.58-160.55,12.05l.04-24.57Z"/>
        <path class="cls-10" d="M77.21,15.85c19.23-2.35,39.35-3.57,58.46-2.07l-.06,41.61c-19.11,1.44-39.23.17-58.45-2.24l.05-37.3Z"/>
        <path class="cls-9" d="M163.97,50.81c12.64-3.35,24.25-8.53,34.09-16.13-9.82-7.63-21.41-12.85-34.05-16.23l-.05,32.36Z"/>
        <path class="cls-1" d="M195.79,35.08l-156.65-.25v9.15s33.53,10.67,83.86,10.74c43.91.06,72.79-19.64,72.79-19.64Z"/>
        <g>
          <path class="cls-12" d="M74.54,34.5c-28.34-3.19-49.35-2.2-70.79-.1l33.32.89,37.47-.79Z"/>
          <path class="cls-13" d="M74.54,34.5c-28.35,3.11-49.36,2.06-70.79-.1l70.79.1Z"/>
        </g>
        <circle class="cls-3" cx="107.67" cy="34.54" r="15.35" transform="translate(72.62 142.05) rotate(-89.73)"/>
        <circle class="cls-14" cx="107.67" cy="34.54" r="12.78" transform="translate(72.97 142.17) rotate(-89.92)"/>
        <path class="cls-2" d="M103.12,30.43c5.59,0,10.12,4.55,10.11,10.14,0,.75-.09,1.48-.25,2.19,3.08-1.73,5.16-5.02,5.16-8.8,0-5.59-4.52-10.13-10.11-10.14-4.84,0-8.88,3.38-9.89,7.92,1.47-.83,3.16-1.31,4.97-1.3Z"/>
      </g>
    </g>
  </g>
</svg>