<?xml version="1.0" encoding="UTF-8"?>
<svg id="Layer_1" data-name="Layer 1" xmlns="http://www.w3.org/2000/svg" viewBox="0 0 160 70">
  <defs>
    <style>
      .cls-1 {
        opacity: .5;
      }

      .cls-1, .cls-2, .cls-3, .cls-4, .cls-5, .cls-6, .cls-7, .cls-8, .cls-9, .cls-10 {
        stroke-width: 0px;
      }

      .cls-1, .cls-9 {
        fill: #fff;
      }

      .cls-2 {
        fill: #e6e6e7;
        opacity: .3;
      }

      .cls-3 {
        fill: #f8ec3a;
      }

      .cls-4 {
        fill: #2b2b38;
      }

      .cls-5 {
        fill: #aa290b;
      }

      .cls-6 {
        fill: #c6421e;
      }

      .cls-7 {
        fill: #a5dcf0;
      }

      .cls-8 {
        fill: #f0f1f1;
      }

      .cls-10 {
        fill: #f05a2a;
      }
    </style>
  </defs>
  <g>
    <g>
      <path class="cls-10" d="M44.1,36.17c-.16-6.55-7.52-12.15-12.77-12.03-5.24.13-25.11,12.93-25.11,12.93,9.08,3.64,20.54,11.84,25.69,11.72,5.15-.12,12.34-6.07,12.18-12.62Z"/>
      <path class="cls-3" d="M43.72,36.18c-.13-5.35-6.15-9.93-10.43-9.83-4.29.1-20.52,10.57-20.52,10.57,7.42,2.97,16.79,9.68,21,9.58,4.21-.1,10.08-4.97,9.95-10.32Z"/>
      <path class="cls-9" d="M43.77,36.18c-.1-4.12-4.74-7.65-8.04-7.57-3.3.08-15.81,8.14-15.81,8.14,5.72,2.29,12.93,7.46,16.18,7.38,3.25-.08,7.77-3.82,7.67-7.95Z"/>
    </g>
    <g>
      <path class="cls-10" d="M41.39,31.21c.85-4.27-3.11-8.98-6.53-9.66-3.42-.68-18.17,4.73-18.17,4.73,5.36,3.68,11.6,10.68,14.97,11.35,3.36.67,8.89-2.15,9.74-6.42Z"/>
      <path class="cls-3" d="M41.14,31.16c.7-3.49-2.54-7.34-5.34-7.9-2.8-.56-14.85,3.87-14.85,3.87,4.38,3.01,9.48,8.72,12.23,9.27,2.75.55,7.26-1.75,7.96-5.24Z"/>
      <path class="cls-9" d="M41.17,31.17c.54-2.69-1.96-5.65-4.11-6.09-2.15-.43-11.45,2.98-11.45,2.98,3.38,2.32,7.31,6.72,9.43,7.15,2.12.42,5.6-1.35,6.13-4.04Z"/>
    </g>
    <g>
      <path class="cls-10" d="M42.42,33.17c-1.1-2.54-4.87-3.57-6.9-2.69-2.03.88-7.78,9.04-7.78,9.04,4.13-.01,9.92,1.38,11.92.52,2-.86,3.87-4.33,2.77-6.87Z"/>
      <path class="cls-3" d="M42.27,33.23c-.9-2.07-3.98-2.91-5.64-2.2-1.66.72-6.36,7.39-6.36,7.39,3.38-.01,8.11,1.13,9.74.42,1.63-.71,3.16-3.54,2.26-5.62Z"/>
      <path class="cls-9" d="M42.29,33.22c-.69-1.6-3.07-2.25-4.35-1.69-1.28.56-4.9,5.69-4.9,5.69,2.6,0,6.25.87,7.51.33,1.26-.54,2.43-2.73,1.74-4.33Z"/>
    </g>
  </g>
  <g>
    <path class="cls-6" d="M74.76,19.82s-4.61-8.07-12.77-12.07c-10.36-5.07-26.24-6.43-27.25-4.47-1.01,1.97,6.62,4.36,11.09,8.33,7.4,6.57,6.95,12.23,6.95,12.23l21.98-4.03Z"/>
    <path class="cls-5" d="M74.71,50.29s-4.63,8.06-12.8,12.03c-10.37,5.04-26.25,6.36-27.26,4.39-1.01-1.97,6.63-4.34,11.11-8.3,7.42-6.55,6.98-12.21,6.98-12.21l21.97,4.09Z"/>
    <path class="cls-4" d="M39.87,46.83c2.8.91,22.52,7.01,47.04,7.04,20.27.03,31.79-11.66,37.48-18.74-5.67-7.1-17.16-18.82-37.43-18.85-24.52-.04-44.26,6.01-47.06,6.91l-.03,23.64Z"/>
    <path class="cls-9" d="M98.09,11.3c-31.04-.04-49.47,7.62-53.02,8.75l-.04,29.93c3.54,1.15,21.96,8.86,53,8.91,13.68.02,26.57-4.17,36.71-9.45l.04-28.58c-10.13-5.31-23.01-9.54-36.69-9.56Z"/>
    <path class="cls-6" d="M153.77,35.17c-3.35-4.2-10.12-9.67-19-14.32l-.04,28.58c8.89-4.62,15.68-10.08,19.04-14.27Z"/>
    <path class="cls-8" d="M134.73,49.44l.02-14.29-89.71-.13-.02,14.97c3.54,1.15,21.96,8.86,53,8.91,13.68.02,26.57-4.17,36.71-9.45Z"/>
    <g>
      <path class="cls-7" d="M120.31,36.43c.01-7.93-6.41-14.36-14.33-14.37-7.92-.01-14.36,6.41-14.37,14.33-.01,7.93,6.41,14.36,14.33,14.37,7.93.01,14.36-6.41,14.37-14.33Z"/>
      <g>
        <path class="cls-4" d="M97.47,51.2c8.17,4.64,18.56,1.79,23.21-6.38,4.65-8.17,1.79-18.56-6.38-23.21-8.17-4.65-18.56-1.79-23.21,6.38-4.64,8.17-1.79,18.56,6.38,23.21ZM99.33,47.93c-6.36-3.62-8.59-11.71-4.97-18.08,3.62-6.37,11.72-8.59,18.08-4.97,6.37,3.62,8.59,11.71,4.97,18.08-3.62,6.37-11.71,8.59-18.08,4.97Z"/>
        <path class="cls-2" d="M98.72,49c6.96,3.96,15.8,1.52,19.76-5.43,3.96-6.96,1.52-15.8-5.43-19.76-6.96-3.95-15.8-1.52-19.76,5.43-3.95,6.96-1.53,15.8,5.43,19.76Z"/>
        <path class="cls-1" d="M101.88,25.23c4.76-1.58,10.19.02,13.28,4.3,3.09,4.28,2.89,9.94-.11,13.96,0,0-2.76-6.86-5.36-10.46-2.68-3.71-7.81-7.8-7.81-7.8Z"/>
      </g>
    </g>
    <path class="cls-6" d="M71.07,35.12h0s0-.02,0-.02c0-2.02-3.12-3.37-7.32-3.38-4.2,0-29.15.41-29.15,3.32h0s0,.01,0,.02c0,2.91,24.95,3.4,29.14,3.41s7.33-1.33,7.33-3.35Z"/>
    <path class="cls-5" d="M134.75,35.14l-.02,14.29c8.89-4.62,15.68-10.08,19.04-14.27,0,0,0,0,0,0l-19.02-.03Z"/>
    <path class="cls-5" d="M71.07,35.12h0s-36.47-.06-36.47-.06h0c0,2.92,24.95,3.41,29.14,3.41s7.33-1.33,7.33-3.35Z"/>
  </g>
</svg>