<?xml version="1.0" encoding="UTF-8"?>
<svg id="Layer_1" data-name="Layer 1" xmlns="http://www.w3.org/2000/svg" viewBox="0 0 185 155">
  <defs>
    <style>
      .cls-1 {
        fill: #00d15f;
        stroke-width: 0px;
      }
    </style>
  </defs>
  <path class="cls-1" d="M7.11,3.94h16.94c7.46,0,13.96,3.82,13.96,12.65s-7.87,11.75-12.65,11.81v.06c.6.24,2.15,1.49,3.16,2.62l12.11,13.54h-11.09l-13.96-16.22h-.12v16.22H7.11V3.94ZM22.86,21.48c3.7,0,6.68-1.31,6.68-4.89s-2.98-4.77-6.68-4.77h-7.4v9.66h7.4Z"/>
  <path class="cls-1" d="M40.75,30.6c0-8.35,6.32-14.67,15.09-14.67s15.09,5.73,15.09,14.73v13.96h-7.28l-.48-4.18c-1.67,2.98-4.71,4.83-9.01,4.83-7.28,0-13.42-5.73-13.42-14.67ZM62.82,30.6c0-4.47-2.92-7.58-6.98-7.58s-6.98,3.1-6.98,7.58,2.98,7.58,6.98,7.58c3.4,0,6.98-2.27,6.98-7.58Z"/>
  <path class="cls-1" d="M74.99,30.6c0-8.35,6.26-14.67,14.97-14.67,7.4,0,12.88,4.35,13.96,11.04h-7.93c-1.01-2.57-2.98-3.88-5.85-3.88-4.12,0-7.04,3.1-7.04,7.52s2.92,7.52,7.04,7.52c2.86,0,4.83-1.31,5.85-3.88h7.93c-1.07,6.68-6.56,11.04-13.96,11.04-8.71,0-14.97-6.32-14.97-14.67Z"/>
  <path class="cls-1" d="M107.02,30.6c0-8.35,5.97-14.67,14.44-14.67s14.32,6.32,14.32,14.67c0,1.13,0,1.55-.06,2.68h-21.06c.89,3.58,3.4,5.37,6.86,5.37,3.16,0,4.83-.78,5.97-2.51h7.46c-1.79,6.5-7.7,9.13-13.24,9.13-8.89,0-14.67-6.26-14.67-14.67ZM128.26,27.8c-.54-3.04-3.4-5.19-6.8-5.19-3.58,0-6.08,2.09-6.86,5.19h13.66Z"/>
  <path class="cls-1" d="M16.29,64.7H3.65v-7.87h33.64v7.87h-12.65v32.81h-8.35v-32.81Z"/>
  <path class="cls-1" d="M35.26,83.49c0-8.35,6.26-14.67,15.15-14.67s15.15,6.32,15.15,14.67-6.26,14.67-15.15,14.67-15.15-6.32-15.15-14.67ZM57.45,83.49c0-4.47-2.92-7.58-7.04-7.58s-7.04,3.1-7.04,7.58,2.92,7.58,7.04,7.58,7.04-3.1,7.04-7.58Z"/>
  <path class="cls-1" d="M94.32,64.7h-12.65v-7.87h33.64v7.87h-12.65v32.81h-8.35v-32.81Z"/>
  <path class="cls-1" d="M119.97,56.83h8.23v16.46c1.67-2.62,4.83-4.47,8.59-4.47,5.67,0,10.56,3.7,10.56,12.35v16.34h-8.23v-15.03c0-4.89-2.56-6.38-5.19-6.38-3.82,0-5.73,3.04-5.73,7.1v14.32h-8.23v-40.68Z"/>
  <path class="cls-1" d="M152.6,83.49c0-8.35,5.97-14.67,14.44-14.67s14.32,6.32,14.32,14.67c0,1.13,0,1.55-.06,2.68h-21.06c.89,3.58,3.4,5.37,6.86,5.37,3.16,0,4.83-.78,5.97-2.51h7.46c-1.79,6.5-7.7,9.13-13.24,9.13-8.89,0-14.67-6.26-14.67-14.67ZM173.84,80.69c-.54-3.04-3.4-5.19-6.8-5.19-3.58,0-6.08,2.09-6.86,5.19h13.66Z"/>
  <path class="cls-1" d="M5.2,130.06c0-12.05,9.01-21,21-21,10.32,0,17.48,5.79,19.33,14.26h-8.59c-1.61-3.34-4.89-6.26-10.74-6.26-7.04,0-12.53,5.49-12.53,13s5.49,13,12.53,13c5.85,0,9.13-2.92,10.74-6.26h8.59c-1.85,8.47-9.01,14.26-19.33,14.26-11.99,0-21-8.95-21-21Z"/>
  <path class="cls-1" d="M51.97,109.72h8.23v40.68h-8.23v-40.68Z"/>
  <path class="cls-1" d="M66.04,136.39c0-8.35,6.26-14.67,15.15-14.67s15.15,6.32,15.15,14.67-6.26,14.67-15.15,14.67-15.15-6.32-15.15-14.67ZM88.23,136.39c0-4.47-2.92-7.58-7.04-7.58s-7.04,3.1-7.04,7.58,2.92,7.58,7.04,7.58,7.04-3.1,7.04-7.58Z"/>
  <path class="cls-1" d="M101,138.06v-15.69h8.23v15.09c0,3.94,1.73,6.38,5.07,6.44,3.64.06,5.19-2.39,5.19-6.38v-15.15h8.23v15.75c0,7.22-5.55,13-13.42,12.94-8.59-.06-13.3-5.43-13.3-13Z"/>
  <path class="cls-1" d="M132.38,136.39c0-8.95,5.97-14.67,13.3-14.67,3.7,0,6.38,1.31,8.17,3.16v-15.15h8.23v26.01c0,9.07-6.38,15.33-14.97,15.33s-14.73-6.32-14.73-14.67ZM153.97,136.39c0-5.31-3.58-7.58-6.86-7.58-3.82,0-6.62,3.1-6.62,7.58s2.8,7.58,6.62,7.58,6.86-3.1,6.86-7.58Z"/>
</svg>