<?xml version="1.0" encoding="UTF-8"?>
<svg id="OBJECTS" xmlns="http://www.w3.org/2000/svg" viewBox="0 0 60 60">
  <defs>
    <style>
      .cls-1 {
        fill: #fff;
        stroke-width: 0px;
      }
    </style>
  </defs>
  <path class="cls-1" d="M54.15,32.11c-1.52,0-2.76,1.23-2.76,2.75v9.26c0,1.19-.96,2.15-2.15,2.15H10.75c-1.19,0-2.15-.96-2.15-2.15v-9.26c0-1.52-1.23-2.75-2.76-2.75s-2.76,1.23-2.76,2.75v9.26c0,4.23,3.43,7.66,7.66,7.66h38.49c4.23,0,7.66-3.43,7.66-7.66v-9.26c0-1.52-1.23-2.75-2.76-2.75Z"/>
  <path class="cls-1" d="M32,9.1c-.51-.57-1.24-.89-2-.89s-1.49.32-2,.89l-11.98,13.27c-.71.79-.89,1.92-.46,2.9.43.97,1.4,1.6,2.46,1.6h5.66v7.13c0,1.49,1.2,2.69,2.69,2.69h7.27c1.49,0,2.69-1.2,2.69-2.69v-7.13h5.66c1.06,0,2.03-.63,2.46-1.6.43-.97.25-2.11-.46-2.9l-11.98-13.27Z"/>
</svg>